<?xml version="1.0" encoding="UTF-8" standalone="no"?>
<!-- Created with Inkscape (http://www.inkscape.org/) -->

<svg
   width="210mm"
   height="297mm"
   viewBox="0 0 210 297"
   version="1.1"
   id="svg1"
   inkscape:version="1.4.2 (f4327f4, 2025-05-13)"
   sodipodi:docname="logo.svg"
   xmlns:inkscape="http://www.inkscape.org/namespaces/inkscape"
   xmlns:sodipodi="http://sodipodi.sourceforge.net/DTD/sodipodi-0.dtd"
   xmlns:xlink="http://www.w3.org/1999/xlink"
   xmlns="http://www.w3.org/2000/svg"
   xmlns:svg="http://www.w3.org/2000/svg">
  <sodipodi:namedview
     id="namedview1"
     pagecolor="#ffffff"
     bordercolor="#000000"
     borderopacity="0.25"
     inkscape:showpageshadow="2"
     inkscape:pageopacity="0.0"
     inkscape:pagecheckerboard="0"
     inkscape:deskcolor="#d1d1d1"
     inkscape:document-units="mm"
     inkscape:zoom="1.1886745"
     inkscape:cx="463.12091"
     inkscape:cy="527.89894"
     inkscape:window-width="3840"
     inkscape:window-height="2089"
     inkscape:window-x="-8"
     inkscape:window-y="-8"
     inkscape:window-maximized="1"
     inkscape:current-layer="text1" />
  <defs
     id="defs1">
    <linearGradient
       id="linearGradient45"
       inkscape:collect="always">
      <stop
         style="stop-color:#cff8f4;stop-opacity:1;"
         offset="0.22268067"
         id="stop47" />
      <stop
         style="stop-color:#6bc8c5;stop-opacity:1;"
         offset="0.59336823"
         id="stop45" />
      <stop
         style="stop-color:#ffffff;stop-opacity:1;"
         offset="1"
         id="stop46" />
    </linearGradient>
    <linearGradient
       id="linearGradient18"
       inkscape:collect="always">
      <stop
         style="stop-color:#286565;stop-opacity:1;"
         offset="0"
         id="stop18" />
      <stop
         style="stop-color:#002323;stop-opacity:1;"
         offset="1"
         id="stop19" />
    </linearGradient>
    <radialGradient
       inkscape:collect="always"
       xlink:href="#linearGradient18"
       id="radialGradient19"
       cx="58.085518"
       cy="178.30254"
       fx="58.085518"
       fy="178.30254"
       r="87.982506"
       gradientTransform="matrix(-1.8761984,0.1567279,-0.15598211,-0.30286661,258.43311,251.607)"
       gradientUnits="userSpaceOnUse" />
    <linearGradient
       inkscape:collect="always"
       xlink:href="#linearGradient45"
       id="linearGradient46"
       x1="146.52382"
       y1="190.96928"
       x2="58.479912"
       y2="190.71967"
       gradientUnits="userSpaceOnUse" />
  </defs>
  <g
     inkscape:label="Layer 1"
     inkscape:groupmode="layer"
     id="layer1">
    <g
       id="text1"
       style="font-size:86.1302px;font-family:'MS PGothic';-inkscape-font-specification:'MS PGothic';letter-spacing:-1.67746px;fill-rule:evenodd;stroke-width:94.9464;paint-order:stroke fill markers"
       aria-label="rawteous">
      <rect
         style="fill:url(#radialGradient19);fill-rule:evenodd;stroke:none;stroke-width:3.14333;stroke-linejoin:miter;stroke-dasharray:none;stroke-opacity:1;paint-order:stroke fill markers"
         id="rect18"
         width="160.21643"
         height="38.61121"
         x="28.994221"
         y="172.95512" />
      <path
         id="rect16"
         style="font-size:medium;baseline-shift:baseline;display:inline;overflow:visible;opacity:1;vector-effect:none;fill-rule:nonzero;stroke-width:35.4461;enable-background:accumulate;stop-color:#000000;stop-opacity:1;fill:url(#linearGradient46);fill-opacity:1"
         d="M 93.53796 151.61245 L 93.53796 225.60432 L 117.92665 213.32238 L 117.92665 209.27456 L 115.89577 209.27456 L 115.89577 212.07129 L 95.56936 222.30788 L 95.56936 154.96625 L 115.89577 165.58679 L 115.89577 180.36057 L 117.92665 180.65151 L 117.92665 164.35689 L 93.53796 151.61245 z M 98.822392 178.25579 L 98.822392 182.73045 L 97.448832 182.73045 L 97.448832 186.34211 L 98.822392 186.34211 L 98.822392 193.46984 C 98.822392 195.54232 99.298741 197.06563 100.25125 198.03907 C 100.7118 198.51009 101.26628 198.84983 101.91523 199.05917 C 102.57466 199.26851 103.18207 199.37336 103.73682 199.37336 C 104.30204 199.37336 104.77284 199.34711 105.14965 199.29481 C 106.54177 199.12734 108.288 198.87545 109.71165 197.36366 C 108.94813 196.48902 108.33267 195.58492 107.96034 194.63205 L 107.83476 194.63205 C 107.33234 195.33335 106.40584 195.68366 105.0556 195.68366 C 104.66832 195.68366 104.32807 195.64178 104.03499 195.55809 C 103.12436 195.32781 102.66919 194.39124 102.66919 192.74792 L 102.66919 186.34211 L 108.2797 186.34211 C 108.75736 185.03283 109.49845 184.21436 110.98237 182.73045 L 102.66919 182.73045 L 102.66919 178.25579 L 98.822392 178.25579 z M 49.443494 182.41677 C 48.470059 182.41677 47.53853 182.92438 46.648832 183.93968 L 46.648832 182.73045 L 42.802039 182.73045 L 42.802039 199.13772 L 46.711361 199.13772 C 46.669491 198.86557 46.648832 198.27984 46.648832 197.37968 L 46.648832 187.70792 C 46.962843 187.21597 47.344932 186.8233 47.795015 186.53022 C 48.255565 186.22668 48.705705 186.07495 49.145321 186.07495 C 50.296696 186.07495 51.05532 186.39958 51.421667 187.04853 L 51.484713 187.00151 L 51.767383 182.77799 C 51.202162 182.53725 50.427396 182.41677 49.443494 182.41677 z M 59.886267 182.41677 C 57.804566 182.34277 55.662818 182.9032 53.810152 183.87663 L 54.280924 187.3467 L 54.32795 187.37823 C 54.767566 186.95955 55.494943 186.58805 56.510246 186.26357 C 56.970796 186.11704 57.442112 186.00159 57.923596 185.91785 C 58.415547 185.82365 58.91256 185.77677 59.414978 185.77677 C 59.927863 185.77677 60.409251 185.82363 60.859334 185.91785 C 62.22005 186.20046 62.94239 187.17938 63.026127 188.85411 C 62.900522 188.83321 62.759386 188.82258 62.60238 188.82258 C 62.445375 188.81208 62.304239 188.80146 62.178634 188.79106 L 61.550248 188.77556 C 58.786949 188.77556 56.599266 189.31997 54.987341 190.40853 C 53.501021 191.41337 52.75802 192.66901 52.75802 194.17626 C 52.75802 195.86146 53.36492 197.14937 54.579097 198.03907 C 55.175719 198.47869 55.903613 198.81339 56.76191 199.04366 C 57.620208 199.26347 58.651033 199.37336 59.854744 199.37336 C 61.058453 199.37336 62.40332 198.97061 63.88964 198.16465 C 64.255987 198.76127 64.737891 199.21644 65.334513 199.53046 L 68.1762 196.9239 C 67.317902 196.48429 66.888424 195.6576 66.888424 194.44343 L 66.888424 188.76005 C 66.888424 187.77615 66.736699 186.8915 66.433154 186.10647 C 65.396627 183.42973 62.616541 182.51378 59.886267 182.41677 z M 117.73597 182.41677 C 115.09828 182.41677 112.96302 183.249 111.33016 184.91326 C 110.56607 185.69829 109.97478 186.61419 109.5561 187.6609 C 109.13741 188.7076 108.92772 189.84328 108.92772 191.06792 C 108.92772 193.49628 109.80178 195.49039 111.54978 197.04999 C 113.2873 198.5991 115.48558 199.37336 118.14421 199.37336 C 118.62569 199.37336 119.12825 199.34221 119.65161 199.27931 C 121.431 199.06997 123.30129 198.24604 125.13551 197.16161 C 124.51375 195.66043 123.31909 194.10288 123.31909 194.10288 C 121.94245 195.32116 120.48078 195.81985 118.77208 195.68366 C 117.18109 195.68366 115.88864 195.37517 114.89428 194.75762 C 113.89991 194.1296 111.84208 192.13556 112.99465 192.13556 L 118.52093 192.13556 C 121.73431 192.13556 123.86454 191.98886 124.91124 191.69579 C 125.03684 191.39224 125.09934 190.82719 125.09934 190.00029 C 125.09934 187.84408 124.43497 186.0541 123.10566 184.63059 C 121.75541 183.15474 119.96545 182.41677 117.73597 182.41677 z M 134.25434 182.41677 C 131.70039 182.41677 129.62258 183.26463 128.02113 184.96029 C 127.28843 185.74532 126.72337 186.66627 126.32562 187.72343 C 125.93834 188.77014 125.74478 189.86953 125.74478 191.0209 C 125.74478 193.40739 126.43031 195.35915 127.8015 196.87687 C 129.30875 198.54113 131.39159 199.37336 134.05022 199.37336 C 136.62511 199.37336 138.69231 198.52551 140.2519 196.82985 C 141.72775 195.22839 142.46572 193.20805 142.46572 190.76923 C 142.46572 188.33041 141.74894 186.34688 140.31495 184.81869 C 138.81817 183.21723 136.79784 182.41677 134.25434 182.41677 z M 167.15155 182.41677 C 164.95347 182.41677 163.23156 182.87698 161.98598 183.79808 C 160.72993 184.72965 160.10186 186.01202 160.10186 187.64488 C 160.10186 188.98466 160.54645 190.06842 161.43614 190.89532 C 161.91763 191.33493 162.54066 191.71148 163.30476 192.02549 C 164.06885 192.33951 165.04778 192.58045 166.24102 192.74792 C 167.44473 192.90492 168.35507 193.14033 168.97263 193.45434 C 169.31803 193.64275 169.49095 193.93057 169.49095 194.31785 C 169.49095 195.52157 168.58562 196.12343 166.77483 196.12343 C 165.42458 196.12343 164.12658 195.90869 162.88101 195.47954 C 162.30531 195.28067 161.7972 195.0503 161.35759 194.78863 C 160.91797 194.52695 160.62008 194.30718 160.46307 194.12924 C 160.31834 193.95555 160.23524 193.87077 160.21503 193.87499 L 160.21451 193.8755 L 160.21399 193.8755 L 160.21348 193.87602 L 160.21296 193.87654 L 160.21244 193.87654 L 160.21244 193.87705 L 160.21193 193.87757 L 160.21193 193.87809 L 160.21141 193.87861 L 160.21089 193.87912 C 160.2004 193.8946 160.18473 193.99427 160.16438 194.17678 C 160.14348 194.35472 160.09155 194.81493 160.0078 195.55809 L 159.86621 196.68877 C 159.82431 197.08653 159.79306 197.44238 159.77216 197.7564 C 161.26895 198.8345 163.49343 199.37336 166.44514 199.37336 C 168.65368 199.37336 170.37509 198.88642 171.6102 197.91298 C 172.79298 196.99189 173.38425 195.79371 173.38425 194.31785 C 173.38425 192.96761 173.00771 191.88435 172.25409 191.06792 C 171.84587 190.61784 171.30702 190.23575 170.63713 189.92174 C 169.96724 189.59725 168.98329 189.34068 167.68537 189.15228 C 166.39793 188.96387 165.38221 188.67101 164.63905 188.27326 C 164.24131 188.06393 164.0427 187.75995 164.0427 187.36221 C 164.0427 186.21083 164.99542 185.63518 166.90041 185.63518 C 167.3505 185.63518 167.79004 185.67706 168.21919 185.76075 C 169.61131 186.00149 170.6371 186.50407 171.29652 187.26816 C 171.44306 187.48797 171.52674 187.59785 171.54767 187.59785 L 171.54819 187.59785 L 171.5487 187.59785 L 171.54922 187.59785 L 171.54974 187.59733 L 171.55025 187.59733 L 171.55077 187.59682 C 171.56117 187.5897 171.57575 187.54813 171.59469 187.47228 L 171.95591 186.54572 C 172.07105 186.24217 172.24898 185.74516 172.48973 185.05434 C 172.57343 184.80313 172.65159 184.54151 172.72486 184.26937 C 171.18621 183.03426 169.3287 182.41677 167.15155 182.41677 z M 147.84059 182.44364 C 147.51588 182.44064 146.95927 182.73045 146.72179 182.73045 L 145.41903 182.73045 C 144.89567 182.73045 144.39311 182.70982 143.91163 182.66792 C 143.95353 182.75162 144.01651 182.95026 144.10025 183.26427 C 144.19445 183.56781 144.24132 184.76649 144.24132 186.85991 L 144.24132 193.09312 C 144.24132 195.02952 144.70205 196.55233 145.62315 197.66184 C 146.58612 198.80274 147.91536 199.37336 149.61102 199.37336 C 151.19154 199.37336 152.65185 198.81837 153.99163 197.70886 L 153.99163 199.13772 L 158.01103 199.13772 C 158.438 199.13772 157.88545 198.04912 157.88545 197.12802 L 157.88545 182.73045 L 153.99163 182.73045 L 153.99163 194.33336 C 153.99163 195.50735 152.24346 195.68366 151.00835 195.68366 C 150.58967 195.68366 150.20255 195.63122 149.84667 195.52657 C 148.67436 195.18116 148.08812 193.93055 148.08812 191.77434 L 148.08812 182.68342 C 148.08812 182.50652 147.98822 182.44492 147.84059 182.44364 z M 67.48787 182.73045 L 72.417802 199.13772 L 76.453215 199.13772 L 79.341927 188.38282 L 82.450781 199.13772 L 86.5172 199.13772 L 90.288546 186.34211 L 91.716882 186.34211 L 91.716882 182.73045 L 87.553312 182.73045 L 84.633077 194.77312 L 81.383146 182.73045 L 77.771997 182.73045 L 74.63162 194.52198 L 71.711385 182.73045 L 67.48787 182.73045 z M 117.24917 185.71373 C 119.26925 185.71373 120.49418 186.83895 120.92337 189.08923 C 120.65122 189.11013 120.34222 189.12628 119.99681 189.13678 L 118.70955 189.1838 C 118.19689 189.2025 117.67292 189.1993 117.1391 189.1993 L 116.24458 189.1993 C 115.8887 189.1993 115.51721 189.1945 115.12992 189.1838 L 113.96772 189.1838 C 113.60138 189.1734 113.29289 189.16268 113.04168 189.15228 C 113.17775 188.64986 113.37131 188.18913 113.62252 187.77045 C 114.41959 186.44873 115.58608 185.71373 117.24917 185.71373 z M 134.00319 185.94937 C 135.40578 185.94937 136.5102 186.43077 137.31617 187.39373 C 138.06979 188.2939 138.44633 189.47696 138.44633 190.94235 C 138.44633 192.38679 138.07987 193.55876 137.34717 194.45893 C 136.59355 195.39049 135.56273 195.85626 134.25434 195.85626 C 132.84129 195.85626 131.70057 195.38044 130.83181 194.42793 C 130.42359 193.98831 130.10956 193.45953 129.88975 192.84198 C 129.66994 192.22442 129.56005 191.58575 129.56005 190.92633 C 129.56005 189.57607 129.92651 188.42981 130.65921 187.48778 C 131.46517 186.46201 132.57968 185.94937 134.00319 185.94937 z M 61.55955 191.60174 L 62.162614 191.60174 C 62.466159 191.60174 62.759537 191.62799 63.042147 191.68029 L 63.042147 194.96174 C 63.042147 195.08734 63.04722 195.2073 63.05765 195.32244 C 62.126083 195.83533 61.121468 196.09191 60.043363 196.09191 C 58.975724 196.09191 58.16971 195.93513 57.625423 195.62113 C 57.342813 195.45365 57.138662 195.24397 57.013057 194.99275 C 56.89792 194.73109 56.839941 194.43318 56.839941 194.09823 C 56.839941 193.76329 56.9342 193.4437 57.122611 193.14015 C 57.748373 192.11808 63.804296 191.60543 61.55955 191.60174 z M 110.79272 201.34843 C 110.22776 201.34843 109.75158 201.3735 109.36387 201.42336 L 109.36387 206.97755 L 110.46458 206.97755 L 110.46458 204.81747 C 110.65013 204.83134 110.79003 204.83814 110.88419 204.83814 C 110.97835 204.83814 111.06672 204.83521 111.1498 204.82987 L 112.11357 207.01062 C 112.6896 206.96362 113.11204 206.96215 113.38068 207.00649 L 113.40135 206.98582 C 113.31273 206.91658 113.18562 206.69785 113.01946 206.32952 L 112.17196 204.54307 C 112.31874 204.46553 112.44858 204.37391 112.56212 204.26867 C 112.9083 203.94188 113.08147 203.54913 113.08147 203.08941 C 113.08147 202.49676 112.89193 202.05879 112.51251 201.77631 C 112.13588 201.49107 111.56261 201.34843 110.79272 201.34843 z M 151.56543 201.34843 C 150.97001 201.34843 150.49604 201.50386 150.14432 201.81404 C 149.79815 202.11867 149.62498 202.51739 149.62498 203.01035 C 149.62498 203.48669 149.75533 203.8576 150.01565 204.12346 C 150.15966 204.27024 150.35194 204.39376 150.59288 204.49346 C 150.83382 204.59316 151.14416 204.66107 151.52357 204.69707 C 151.90297 204.73307 152.17323 204.8037 152.33385 204.90894 C 152.41694 204.96155 152.47614 205.02485 152.51214 205.09963 C 152.54814 205.17163 152.5664 205.26461 152.5664 205.37816 C 152.5664 205.48893 152.53586 205.59011 152.47493 205.6815 C 152.29492 205.95014 151.92674 206.08406 151.37009 206.08406 C 150.58635 206.08406 150.02264 205.78788 149.67924 205.19523 L 149.6627 205.20763 L 149.61671 206.59514 C 149.73302 206.67545 149.86883 206.74608 150.02392 206.80701 C 150.49472 206.98979 150.97141 207.08142 151.45329 207.08142 C 152.05148 207.08142 152.54677 206.94015 152.94002 206.65767 C 153.39974 206.32811 153.6299 205.85875 153.6299 205.24949 C 153.6299 204.78423 153.48863 204.42423 153.20615 204.16945 C 153.05661 204.03374 152.86517 203.92166 152.63254 203.83304 C 152.39991 203.74444 152.09145 203.67516 151.7065 203.6253 C 151.32156 203.57268 151.04584 203.48242 150.87968 203.35503 C 150.74675 203.2498 150.68021 203.09215 150.68021 202.88167 C 150.68021 202.72105 150.7563 202.5907 150.90862 202.491 C 150.98062 202.44393 151.06678 202.40793 151.16648 202.383 C 151.26895 202.35806 151.3906 202.34579 151.53184 202.34579 C 151.67584 202.34579 151.8253 202.3608 151.98039 202.39126 C 152.47334 202.48266 152.82241 202.68228 153.02735 202.98968 L 153.05629 202.98141 L 153.13536 201.76029 L 153.13536 201.75978 C 152.68672 201.4856 152.16362 201.34843 151.56543 201.34843 z M 164.70881 201.34843 C 164.14385 201.34843 163.66767 201.3735 163.27996 201.42336 L 163.27996 206.97755 L 164.38066 206.97755 L 164.38066 204.81747 C 164.56621 204.83134 164.70612 204.83814 164.80028 204.83814 C 164.89444 204.83814 164.98281 204.83521 165.06589 204.82987 L 166.02966 207.01062 C 166.6057 206.96362 167.02813 206.96215 167.29677 207.00649 L 167.31744 206.98582 C 167.22882 206.91658 167.10171 206.69785 166.93555 206.32952 L 166.08805 204.54307 C 166.23483 204.46553 166.36466 204.37391 166.47821 204.26867 C 166.82438 203.94188 166.99756 203.54913 166.99756 203.08941 C 166.99756 202.49676 166.80801 202.05879 166.4286 201.77631 C 166.05196 201.49107 165.4787 201.34843 164.70881 201.34843 z M 170.00099 201.34843 C 169.40557 201.34843 168.93212 201.50386 168.58041 201.81404 C 168.23423 202.11867 168.06106 202.51739 168.06106 203.01035 C 168.06106 203.48669 168.19141 203.8576 168.45173 204.12346 C 168.59575 204.27024 168.78803 204.39376 169.02896 204.49346 C 169.2699 204.59316 169.58025 204.66107 169.95965 204.69707 C 170.33906 204.73307 170.60879 204.8037 170.76942 204.90894 C 170.85251 204.96155 170.91222 205.02485 170.94822 205.09963 C 170.98422 205.17163 171.00248 205.26461 171.00248 205.37816 C 171.00248 205.48893 170.97195 205.59011 170.91101 205.6815 C 170.73101 205.95014 170.36231 206.08406 169.80566 206.08406 C 169.02192 206.08406 168.45873 205.78788 168.11532 205.19523 L 168.09827 205.20763 L 168.05279 206.59514 C 168.1691 206.67545 168.30491 206.74608 168.46 206.80701 C 168.9308 206.98979 169.40698 207.08142 169.88885 207.08142 C 170.48705 207.08142 170.98285 206.94015 171.3761 206.65767 C 171.83582 206.32811 172.06547 205.85875 172.06547 205.24949 C 172.06547 204.78423 171.9242 204.42423 171.64172 204.16945 C 171.49217 204.03374 171.30125 203.92166 171.06863 203.83304 C 170.83599 203.74444 170.52753 203.67516 170.14259 203.6253 C 169.75764 203.57268 169.48192 203.48242 169.31576 203.35503 C 169.18283 203.2498 169.11629 203.09215 169.11629 202.88167 C 169.11629 202.72105 169.19238 202.5907 169.3447 202.491 C 169.4167 202.44393 169.50235 202.40793 169.60205 202.383 C 169.70452 202.35806 169.82668 202.34579 169.96792 202.34579 C 170.11193 202.34579 170.26138 202.3608 170.41647 202.39126 C 170.90942 202.48266 171.2585 202.68228 171.46344 202.98968 L 171.49237 202.98141 L 171.57144 201.76029 L 171.57144 201.75978 C 171.1228 201.4856 170.59919 201.34843 170.00099 201.34843 z M 140.26586 201.34895 C 139.86152 201.34895 139.4669 201.37401 139.08195 201.42388 L 139.08195 206.97755 L 140.14132 206.97755 L 140.14132 205.45723 C 140.22717 205.46556 140.30599 205.46963 140.37799 205.46963 C 141.00941 205.46963 141.5262 205.29834 141.92777 204.95493 C 142.35702 204.58937 142.57166 204.0922 142.57166 203.46355 C 142.57166 202.76012 142.37477 202.23241 141.98151 201.8807 C 141.59103 201.52621 141.01913 201.34895 140.26586 201.34895 z M 145.96112 201.34895 C 145.51801 201.34895 145.11793 201.4305 144.76067 201.5939 C 144.40343 201.75452 144.09905 201.97188 143.84703 202.24605 C 143.59502 202.52022 143.40086 202.83739 143.26516 203.19742 C 143.12946 203.55744 143.06155 203.93978 143.06155 204.34412 C 143.06155 204.74568 143.13355 205.11523 143.27756 205.45309 C 143.42434 205.79096 143.62396 206.08032 143.87597 206.32126 C 144.12799 206.5622 144.42281 206.74902 144.76067 206.88195 C 145.10131 207.01488 145.43212 207.08142 145.75338 207.08142 C 146.07739 207.08142 146.35993 207.05 146.60087 206.98633 C 147.09106 206.85617 147.5135 206.61782 147.86798 206.27165 C 148.44402 205.70946 148.73201 205.00449 148.73201 204.15705 C 148.73201 203.28192 148.4522 202.58702 147.89278 202.0719 C 147.36936 201.59003 146.72547 201.34895 145.96112 201.34895 z M 158.11231 201.34895 C 158.08741 201.36835 158.05278 201.39068 158.00844 201.41561 C 157.96413 201.44055 157.82013 201.45282 157.57643 201.45282 L 154.97142 201.45282 C 154.56985 201.45282 154.32332 201.43781 154.23193 201.40734 L 154.21953 201.41975 L 154.21953 202.48325 L 154.23193 202.48738 C 154.25683 202.46798 154.29147 202.44565 154.3358 202.42072 C 154.38011 202.39579 154.52411 202.38351 154.76781 202.38351 L 155.5905 202.38351 L 155.5905 206.97755 L 155.72331 206.97755 C 156.27442 206.97755 156.61668 206.98627 156.74961 207.00287 L 156.74961 202.38351 L 157.37282 202.38351 C 157.77438 202.38351 158.02092 202.39852 158.11231 202.42899 L 158.12472 202.41659 L 158.12472 201.35308 L 158.11231 201.34895 z M 117.37268 201.41871 C 116.75233 201.44085 116.12534 201.45179 115.49114 201.45179 C 115.26406 201.45179 115.05352 201.44937 114.85966 201.44403 L 114.56872 201.43577 C 114.47733 201.43277 114.39441 201.4287 114.31964 201.42336 L 114.31964 206.97755 L 117.43108 206.97755 L 117.47242 205.93472 L 117.45588 205.9311 C 117.38942 205.96437 117.2705 205.98071 117.0988 205.98071 L 115.40381 205.98019 L 115.40381 204.48468 L 116.43424 204.48468 C 116.64471 204.48468 116.81601 204.49148 116.94893 204.50535 L 116.93653 203.47957 C 116.8756 203.49617 116.69288 203.50437 116.38824 203.50437 L 115.40381 203.50437 L 115.40381 202.44501 L 116.71226 202.44501 C 116.97812 202.44501 117.18319 202.46549 117.32721 202.50702 L 117.33496 202.49462 C 117.32962 202.47248 117.32721 202.43921 117.32721 202.39488 C 117.32721 201.98778 117.34221 201.66242 117.37268 201.41871 z M 162.07073 201.41871 C 161.45038 201.44085 160.82338 201.45179 160.18919 201.45179 C 159.9621 201.45179 159.75156 201.44937 159.5577 201.44403 L 159.26676 201.43577 C 159.17537 201.43277 159.09246 201.4287 159.01768 201.42336 L 159.01768 206.97755 L 162.12912 206.97755 L 162.17046 205.93472 L 162.15393 205.9311 C 162.08746 205.96437 161.96854 205.98071 161.79684 205.98071 L 160.10186 205.98019 L 160.10186 204.48468 L 161.13228 204.48468 C 161.34276 204.48468 161.51456 204.49148 161.6475 204.50535 L 161.63458 203.47957 C 161.57365 203.49617 161.39093 203.50437 161.08629 203.50437 L 160.10186 203.50437 L 160.10186 202.44501 L 161.4103 202.44501 C 161.67617 202.44501 161.88125 202.46549 162.02525 202.50702 L 162.033 202.49462 C 162.02767 202.47248 162.02525 202.43921 162.02525 202.39488 C 162.02525 201.98778 162.04026 201.66242 162.07073 201.41871 z M 131.21008 201.41975 C 131.12146 201.44188 131.0039 201.45282 130.85713 201.45282 L 130.55792 201.45282 C 130.49976 201.45282 130.33205 201.44735 130.05511 201.43628 L 130.05563 206.97755 L 131.20594 206.97755 L 131.21008 201.41975 z M 133.82697 201.41975 C 133.73835 201.44188 133.58753 201.45282 133.37429 201.45282 C 133.16105 201.45282 132.96604 201.44735 132.78879 201.43628 L 132.78879 206.97755 L 133.12107 206.97755 C 133.50048 206.97755 133.75657 206.98627 133.8895 207.00287 L 133.8895 203.47595 L 135.25221 205.71096 L 136.61027 203.28062 L 136.61027 207.00287 C 136.74319 206.98627 136.99928 206.97755 137.37869 206.97755 L 137.71149 206.97755 L 137.71149 201.43628 C 137.53425 201.44735 137.32098 201.45282 137.07174 201.45282 C 136.82249 201.45282 136.65341 201.44188 136.56479 201.41975 L 135.22275 203.7917 L 133.82697 201.41975 z M 123.55422 201.42802 L 123.55422 207.00287 C 123.68714 206.98627 123.95688 206.97755 124.36399 206.97755 L 124.75879 206.97755 C 125.39852 206.97755 125.85423 206.9876 126.12563 207.007 L 126.12563 206.96514 C 126.12563 206.94022 126.13517 206.60394 126.15457 205.9559 C 126.00503 205.9725 125.80541 205.98071 125.55616 205.98071 L 124.69626 205.98071 L 124.69626 201.43628 C 124.41932 201.44735 124.17603 201.45282 123.96556 201.45282 C 123.75786 201.45282 123.62068 201.44462 123.55422 201.42802 z M 119.74876 201.44093 L 119.74515 201.44869 C 119.74781 201.45695 119.74876 201.48068 119.74876 201.51948 C 119.74876 201.55548 119.70867 201.68668 119.62836 201.91377 L 117.82123 206.97755 L 118.14938 206.97755 C 118.46786 206.97755 118.7463 206.989 118.98447 207.01114 L 119.37514 205.78227 L 121.25306 205.78227 L 121.64322 206.97858 L 122.28711 206.97858 L 122.47418 206.97858 L 122.69019 206.98685 C 122.76495 206.98685 122.83012 206.9878 122.88552 206.99047 L 121.04119 201.91842 C 120.95811 201.69132 120.91613 201.55141 120.91613 201.49881 C 120.91613 201.47941 120.91907 201.4644 120.9244 201.45334 L 120.92027 201.44507 C 120.68763 201.4504 120.48854 201.45334 120.32237 201.45334 C 120.12021 201.45334 119.92878 201.44927 119.74876 201.44093 z M 110.87179 202.32925 C 111.24289 202.32925 111.52405 202.38351 111.71514 202.49152 C 111.92008 202.6106 112.0221 202.81704 112.0221 203.1106 C 112.0221 203.40415 111.92417 203.62424 111.72755 203.77102 C 111.63615 203.83746 111.52816 203.8871 111.40354 203.92037 C 111.27891 203.95084 111.12485 203.96584 110.94207 203.96584 C 110.75929 203.96584 110.60028 203.95631 110.46458 203.93691 L 110.46458 202.34992 C 110.59474 202.33606 110.73055 202.32925 110.87179 202.32925 z M 164.78787 202.32925 C 165.15897 202.32925 165.44015 202.38351 165.63123 202.49152 C 165.83617 202.6106 165.93819 202.81704 165.93819 203.1106 C 165.93819 203.40415 165.84026 203.62424 165.64364 203.77102 C 165.55225 203.83746 165.44425 203.8871 165.31962 203.92037 C 165.195 203.95084 165.04093 203.96584 164.85815 203.96584 C 164.67537 203.96584 164.51636 203.95631 164.38066 203.93691 L 164.38066 202.34992 C 164.51082 202.33606 164.64663 202.32925 164.78787 202.32925 z M 140.39091 202.34992 C 141.13588 202.34992 141.50816 202.7181 141.50816 203.45476 C 141.50816 203.78432 141.40971 204.04997 141.21309 204.25213 C 141.11893 204.34905 141.00274 204.42566 140.86427 204.48106 C 140.7258 204.53366 140.59272 204.55961 140.46533 204.55961 C 140.33794 204.55961 140.22994 204.55414 140.14132 204.54307 L 140.14132 202.35819 C 140.2244 202.35286 140.30783 202.34992 140.39091 202.34992 z M 145.87843 202.36698 C 146.41293 202.36698 146.83349 202.55517 147.14089 202.9318 C 147.42614 203.28351 147.56877 203.72233 147.56877 204.24851 C 147.56877 204.80793 147.41932 205.24948 147.12022 205.5735 C 146.82667 205.88645 146.43749 206.04324 145.95285 206.04324 C 145.44328 206.04324 145.02682 205.87962 144.7028 205.55283 C 144.55048 205.39774 144.43105 205.21229 144.34519 204.99627 C 144.25935 204.78026 144.21652 204.54328 144.21652 204.28572 C 144.21652 203.74569 144.35915 203.29732 144.6444 202.94007 C 144.94903 202.55789 145.36055 202.36698 145.87843 202.36698 z M 120.30118 202.85273 L 120.92854 204.7844 L 119.69089 204.7844 L 120.30118 202.85273 z " />
      <rect
         style="fill:#ffffff;fill-opacity:0;fill-rule:evenodd;stroke:none;stroke-width:4.58002;stroke-linejoin:miter;stroke-dasharray:none;stroke-opacity:1;paint-order:stroke fill markers"
         id="rect56"
         width="139.78456"
         height="78.795753"
         x="38.507526"
         y="50.304634"
         inkscape:export-filename="..\Packages\com.voidoverzero.rawteous\UI\logo.png"
         inkscape:export-xdpi="36.34164"
         inkscape:export-ydpi="36.34164" />
      <path
         id="path56"
         style="font-size:medium;baseline-shift:baseline;display:inline;overflow:visible;opacity:1;vector-effect:none;fill:#ffffff;fill-opacity:1;fill-rule:nonzero;stroke-width:35.4461;enable-background:accumulate;stop-color:#000000;stop-opacity:1"
         d="m 93.760547,52.561292 v 73.991868 l 24.388693,-12.28194 v -4.04782 h -2.03088 v 2.79673 L 95.791947,123.25672 V 55.915092 l 20.326413,10.62054 v 14.77378 l 2.03088,0.29094 v -16.29462 z m 5.284432,26.64334 v 4.47466 h -1.37356 v 3.61166 h 1.37356 v 7.12773 c 0,2.07248 0.476349,3.59579 1.428861,4.56923 0.46055,0.47102 1.01503,0.81076 1.66398,1.020098 0.65943,0.20934 1.26684,0.31419 1.82159,0.31419 0.56522,0 1.03602,-0.0262 1.41283,-0.0785 1.39212,-0.16747 3.13835,-0.419358 4.562,-1.931148 -0.76352,-0.87464 -1.37898,-1.77874 -1.75131,-2.73161 h -0.12558 c -0.50242,0.7013 -1.42892,1.05161 -2.77916,1.05161 -0.38728,0 -0.72753,-0.04188 -1.02061,-0.12557 -0.91063,-0.23028 -1.3658,-1.16685 -1.3658,-2.81017 v -6.40581 h 5.61051 c 0.47766,-1.30928 1.21875,-2.12775 2.70267,-3.61166 h -8.31318 v -4.47466 z m -49.378898,4.16098 c -0.973435,0 -1.904964,0.50761 -2.794662,1.52291 v -1.20923 h -3.846793 v 16.407268 h 3.909322 c -0.04187,-0.272148 -0.06253,-0.857878 -0.06253,-1.758038 v -9.67176 c 0.314011,-0.49195 0.6961,-0.88462 1.146183,-1.1777 0.46055,-0.30354 0.91069,-0.45527 1.350306,-0.45527 1.151375,0 1.909999,0.32463 2.276346,0.97358 l 0.06305,-0.04702 0.28267,-4.22352 c -0.565221,-0.24074 -1.339987,-0.36122 -2.323889,-0.36122 z m 10.442773,0 c -2.081701,-0.074 -4.223449,0.48643 -6.076115,1.45986 l 0.470772,3.47007 0.04703,0.03153 c 0.439616,-0.41868 1.166993,-0.79018 2.182296,-1.11466 0.46055,-0.14653 0.931866,-0.26198 1.41335,-0.34572 0.491951,-0.0942 0.988964,-0.14108 1.491382,-0.14108 0.512885,0 0.994273,0.04686 1.444356,0.14108 1.360716,0.28261 2.083056,1.26153 2.166793,2.93626 -0.125605,-0.0209 -0.266741,-0.03153 -0.423747,-0.03153 -0.157005,-0.0105 -0.298141,-0.02112 -0.423746,-0.03152 l -0.628386,-0.0155 c -2.763299,0 -4.950982,0.54441 -6.562907,1.63297 -1.48632,1.00484 -2.229321,2.26048 -2.229321,3.76773 0,1.6852 0.6069,2.97311 1.821077,3.86281 0.596622,0.43962 1.324516,0.77432 2.182813,1.00459 0.858298,0.219808 1.889123,0.329698 3.092834,0.329698 1.203709,0 2.548576,-0.402748 4.034896,-1.208708 0.366347,0.59662 0.848251,1.051788 1.444873,1.365808 l 2.841687,-2.606558 c -0.858298,-0.43961 -1.287776,-1.2663 -1.287776,-2.48047 v -5.68338 c 0,-0.9839 -0.151725,-1.86855 -0.45527,-2.65358 -1.036527,-2.67674 -3.816613,-3.59269 -6.546887,-3.6897 z m 57.849706,0 c -2.63769,0 -4.77295,0.83223 -6.40581,2.49649 -0.76409,0.78503 -1.35538,1.70093 -1.77406,2.74764 -0.41869,1.0467 -0.62838,2.18238 -0.62838,3.40702 0,2.42836 0.87406,4.42247 2.62206,5.98207 1.73752,1.54911 3.9358,2.323368 6.59443,2.323368 0.48148,0 0.98404,-0.0311 1.5074,-0.094 1.77939,-0.20934 3.64968,-1.033268 5.4839,-2.117698 -0.62176,-1.50118 -1.81642,-3.05873 -1.81642,-3.05873 -1.37664,1.21828 -2.83831,1.71697 -4.54701,1.58078 -1.59099,0 -2.88344,-0.30849 -3.8778,-0.92604 -0.99437,-0.62802 -3.0522,-2.62206 -1.89963,-2.62206 h 5.52628 c 3.21338,0 5.34361,-0.1467 6.39031,-0.43977 0.1256,-0.30355 0.1881,-0.8686 0.1881,-1.6955 0,-2.15621 -0.66437,-3.94619 -1.99368,-5.3697 -1.35025,-1.47585 -3.14021,-2.21382 -5.36969,-2.21382 z m 16.51837,0 c -2.55395,0 -4.63176,0.84786 -6.23321,2.54352 -0.7327,0.78503 -1.29776,1.70598 -1.69551,2.76314 -0.38728,1.04671 -0.58084,2.1461 -0.58084,3.29747 0,2.38649 0.68553,4.33825 2.05672,5.85597 1.50725,1.66426 3.59009,2.496488 6.24872,2.496488 2.57489,0 4.64209,-0.847848 6.20168,-2.543508 1.47585,-1.60146 2.21382,-3.6218 2.21382,-6.06062 0,-2.43882 -0.71678,-4.42235 -2.15077,-5.95054 -1.49678,-1.60146 -3.51711,-2.40192 -6.06061,-2.40192 z m 32.89721,0 c -2.19808,0 -3.91999,0.46021 -5.16557,1.38131 -1.25605,0.93157 -1.88412,2.21394 -1.88412,3.8468 0,1.33978 0.44459,2.42354 1.33428,3.25044 0.48149,0.43961 1.10452,0.81616 1.86862,1.13017 0.76409,0.31402 1.74302,0.55496 2.93626,0.72243 1.20371,0.157 2.11405,0.39241 2.73161,0.70642 0.3454,0.18841 0.51832,0.47623 0.51832,0.86351 0,1.20372 -0.90533,1.80558 -2.71612,1.80558 -1.35025,0 -2.64825,-0.21474 -3.89382,-0.64389 -0.5757,-0.19887 -1.08381,-0.42924 -1.52342,-0.69091 -0.43962,-0.26168 -0.73751,-0.48145 -0.89452,-0.65939 -0.14473,-0.17369 -0.22783,-0.25847 -0.24804,-0.25425 l -5.2e-4,5.1e-4 h -5.2e-4 l -5.1e-4,5.2e-4 -5.2e-4,5.2e-4 h -5.2e-4 v 5.1e-4 l -5.1e-4,5.2e-4 v 5.2e-4 l -5.2e-4,5.2e-4 -5.2e-4,5.1e-4 c -0.0105,0.01548 -0.0262,0.11515 -0.0465,0.29766 -0.0209,0.17794 -0.0728,0.63815 -0.15658,1.38131 l -0.14159,1.13068 c -0.0419,0.39776 -0.0731,0.75361 -0.094,1.06763 1.49679,1.0781 3.72127,1.616958 6.67298,1.616958 2.20854,0 3.92995,-0.486938 5.16506,-1.460378 1.18278,-0.92109 1.77405,-2.11927 1.77405,-3.59513 0,-1.35024 -0.37654,-2.4335 -1.13016,-3.24993 -0.40822,-0.45008 -0.94707,-0.83217 -1.61696,-1.14618 -0.66989,-0.32449 -1.65384,-0.58106 -2.95176,-0.76946 -1.28744,-0.18841 -2.30316,-0.48127 -3.04632,-0.87902 -0.39774,-0.20933 -0.59635,-0.51331 -0.59635,-0.91105 0,-1.15138 0.95272,-1.72703 2.85771,-1.72703 0.45009,0 0.88963,0.04188 1.31878,0.12557 1.39212,0.24074 2.41791,0.74332 3.07733,1.50741 0.14654,0.21981 0.23022,0.32969 0.25115,0.32969 h 5.2e-4 5.1e-4 5.2e-4 l 5.2e-4,-5.2e-4 h 5.1e-4 l 5.2e-4,-5.1e-4 c 0.0104,-0.0071 0.025,-0.04869 0.0439,-0.12454 l 0.36122,-0.92656 c 0.11514,-0.30355 0.29307,-0.80056 0.53382,-1.49138 0.0837,-0.25121 0.16186,-0.51283 0.23513,-0.78497 -1.53865,-1.23511 -3.39616,-1.8526 -5.57331,-1.8526 z m -19.31096,0.02687 c -0.32471,-0.003 -0.88132,0.28681 -1.1188,0.28681 h -1.30276 c -0.52336,0 -1.02592,-0.02063 -1.5074,-0.06253 0.0419,0.0837 0.10488,0.28234 0.18862,0.59635 0.0942,0.30354 0.14107,1.50222 0.14107,3.59564 v 6.23321 c 0,1.9364 0.46073,3.45921 1.38183,4.56872 0.96297,1.1409 2.29221,1.711518 3.98787,1.711518 1.58052,0 3.04083,-0.554988 4.38061,-1.664498 v 1.428858 h 4.0194 c 0.42697,0 -0.12558,-1.088598 -0.12558,-2.009698 v -14.39757 h -3.89382 v 11.60291 c 0,1.17399 -1.74817,1.3503 -2.98328,1.3503 -0.41868,0 -0.8058,-0.05244 -1.16168,-0.15709 -1.17231,-0.34541 -1.75855,-1.59602 -1.75855,-3.75223 v -9.09092 c 0,-0.1769 -0.0999,-0.2385 -0.24753,-0.23978 z m -80.352723,0.28681 4.929932,16.407268 h 4.035413 l 2.888712,-10.754898 3.108854,10.754898 h 4.066419 l 3.771346,-12.795608 h 1.428336 v -3.61166 h -4.16357 l -2.920235,12.04267 -3.249931,-12.04267 h -3.611149 l -3.140377,11.79153 -2.920235,-11.79153 z m 49.761303,2.98328 c 2.02008,0 3.24501,1.12522 3.6742,3.3755 -0.27215,0.0209 -0.58115,0.03705 -0.92656,0.04755 l -1.28726,0.04702 c -0.51266,0.0187 -1.03663,0.0155 -1.57045,0.0155 h -0.89452 c -0.35588,0 -0.72737,-0.0048 -1.11466,-0.0155 h -1.1622 c -0.36634,-0.0104 -0.67483,-0.02112 -0.92604,-0.03152 0.13607,-0.50242 0.32963,-0.96315 0.58084,-1.38183 0.79707,-1.32172 1.96356,-2.05672 3.62665,-2.05672 z m 16.75402,0.23564 c 1.40259,0 2.50701,0.4814 3.31298,1.44436 0.75362,0.90017 1.13016,2.08323 1.13016,3.54862 0,1.44444 -0.36646,2.61641 -1.09916,3.51658 -0.75362,0.93156 -1.78444,1.39733 -3.09283,1.39733 -1.41305,0 -2.55377,-0.47582 -3.42253,-1.42833 -0.40822,-0.43962 -0.72225,-0.9684 -0.94206,-1.58595 -0.21981,-0.61756 -0.3297,-1.25623 -0.3297,-1.91565 0,-1.35026 0.36646,-2.49652 1.09916,-3.43855 0.80596,-1.02577 1.92047,-1.53841 3.34398,-1.53841 z m -72.443643,5.65237 h 0.603064 c 0.303545,0 0.596923,0.02625 0.879533,0.07855 v 3.28145 c 0,0.1256 0.0051,0.24556 0.0155,0.3607 -0.931567,0.51289 -1.936182,0.76947 -3.014287,0.76947 -1.067639,0 -1.873653,-0.15678 -2.41794,-0.47078 -0.28261,-0.16748 -0.486761,-0.37716 -0.612366,-0.62838 -0.115137,-0.26166 -0.173116,-0.55957 -0.173116,-0.89452 0,-0.33494 0.09426,-0.65453 0.28267,-0.95808 0.625762,-1.02207 6.681685,-1.53472 4.436939,-1.53841 z m 49.233173,9.746688 c -0.56496,0 -1.04114,0.0251 -1.42885,0.0749 v 5.55419 h 1.10071 v -2.16008 c 0.18555,0.0139 0.32545,0.0207 0.41961,0.0207 0.0942,0 0.18253,-0.003 0.26561,-0.008 l 0.96377,2.18075 c 0.57603,-0.047 0.99847,-0.0485 1.26711,-0.004 l 0.0207,-0.0207 c -0.0886,-0.0692 -0.21573,-0.28797 -0.38189,-0.6563 l -0.8475,-1.78645 c 0.14678,-0.0775 0.27662,-0.16916 0.39016,-0.2744 0.34618,-0.32679 0.51935,-0.71954 0.51935,-1.17926 0,-0.59265 -0.18954,-1.03062 -0.56896,-1.3131 -0.37663,-0.28524 -0.9499,-0.42788 -1.71979,-0.42788 z m 40.77271,0 c -0.59542,0 -1.06939,0.15543 -1.42111,0.46561 -0.34617,0.30463 -0.51934,0.70335 -0.51934,1.19631 0,0.47634 0.13035,0.84725 0.39067,1.11311 0.14401,0.14678 0.33629,0.2703 0.57723,0.37 0.24094,0.0997 0.55128,0.16761 0.93069,0.20361 0.3794,0.036 0.64966,0.10663 0.81028,0.21187 0.0831,0.0526 0.14229,0.11591 0.17829,0.19069 0.036,0.072 0.0543,0.16498 0.0543,0.27853 0,0.11077 -0.0305,0.21195 -0.0915,0.30334 -0.18001,0.26864 -0.54819,0.40256 -1.10484,0.40256 -0.78374,0 -1.34745,-0.29618 -1.69085,-0.88883 l -0.0165,0.0124 -0.046,1.38751 c 0.11631,0.0803 0.25212,0.15094 0.40721,0.21187 0.4708,0.18278 0.94749,0.27441 1.42937,0.27441 0.59819,0 1.09348,-0.14127 1.48673,-0.42375 0.45972,-0.32956 0.68988,-0.79892 0.68988,-1.40818 0,-0.46526 -0.14127,-0.82526 -0.42375,-1.08004 -0.14954,-0.13571 -0.34098,-0.24779 -0.57361,-0.33641 -0.23263,-0.0886 -0.54109,-0.15788 -0.92604,-0.20774 -0.38494,-0.0526 -0.66066,-0.14288 -0.82682,-0.27027 -0.13293,-0.10523 -0.19947,-0.26288 -0.19947,-0.47336 0,-0.16062 0.0761,-0.29097 0.22841,-0.39067 0.072,-0.0471 0.15816,-0.0831 0.25786,-0.108 0.10247,-0.0249 0.22412,-0.0372 0.36536,-0.0372 0.144,0 0.29346,0.015 0.44855,0.0455 0.49295,0.0914 0.84202,0.29102 1.04696,0.59842 l 0.0289,-0.008 0.0791,-1.22112 v -5.1e-4 c -0.44864,-0.27418 -0.97174,-0.41135 -1.56993,-0.41135 z m 13.14338,0 c -0.56496,0 -1.04114,0.0251 -1.42885,0.0749 v 5.55419 h 1.1007 v -2.16008 c 0.18555,0.0139 0.32546,0.0207 0.41962,0.0207 0.0942,0 0.18253,-0.003 0.26561,-0.008 l 0.96377,2.18075 c 0.57604,-0.047 0.99847,-0.0485 1.26711,-0.004 l 0.0207,-0.0207 c -0.0886,-0.0692 -0.21573,-0.28797 -0.38189,-0.6563 l -0.8475,-1.78645 c 0.14678,-0.0775 0.27661,-0.16916 0.39016,-0.2744 0.34617,-0.32679 0.51935,-0.71954 0.51935,-1.17926 0,-0.59265 -0.18955,-1.03062 -0.56896,-1.3131 -0.37664,-0.28524 -0.9499,-0.42788 -1.71979,-0.42788 z m 5.29218,0 c -0.59542,0 -1.06887,0.15543 -1.42058,0.46561 -0.34618,0.30463 -0.51935,0.70335 -0.51935,1.19631 0,0.47634 0.13035,0.84725 0.39067,1.11311 0.14402,0.14678 0.3363,0.2703 0.57723,0.37 0.24094,0.0997 0.55129,0.16761 0.93069,0.20361 0.37941,0.036 0.64914,0.10663 0.80977,0.21187 0.0831,0.0526 0.1428,0.11591 0.1788,0.19069 0.036,0.072 0.0543,0.16498 0.0543,0.27853 0,0.11077 -0.0305,0.21195 -0.0915,0.30334 -0.18,0.26864 -0.5487,0.40256 -1.10535,0.40256 -0.78374,0 -1.34693,-0.29618 -1.69034,-0.88883 l -0.017,0.0124 -0.0455,1.38751 c 0.11631,0.0803 0.25212,0.15094 0.40721,0.21187 0.4708,0.18278 0.94698,0.27441 1.42885,0.27441 0.5982,0 1.094,-0.14127 1.48725,-0.42375 0.45972,-0.32956 0.68937,-0.79892 0.68937,-1.40818 0,-0.46526 -0.14127,-0.82526 -0.42375,-1.08004 -0.14955,-0.13571 -0.34047,-0.24779 -0.57309,-0.33641 -0.23264,-0.0886 -0.5411,-0.15788 -0.92604,-0.20774 -0.38495,-0.0526 -0.66067,-0.14288 -0.82683,-0.27027 -0.13293,-0.10523 -0.19947,-0.26288 -0.19947,-0.47336 0,-0.16062 0.0761,-0.29097 0.22841,-0.39067 0.072,-0.0471 0.15765,-0.0831 0.25735,-0.108 0.10247,-0.0249 0.22463,-0.0372 0.36587,-0.0372 0.14401,0 0.29346,0.015 0.44855,0.0455 0.49295,0.0914 0.84203,0.29102 1.04697,0.59842 l 0.0289,-0.008 0.0791,-1.22112 v -5.1e-4 c -0.44864,-0.27418 -0.97225,-0.41135 -1.57045,-0.41135 z m -29.73513,5.2e-4 c -0.40434,0 -0.79896,0.0251 -1.18391,0.0749 v 5.55367 h 1.05937 v -1.52032 c 0.0858,0.008 0.16467,0.0124 0.23667,0.0124 0.63142,0 1.14821,-0.17129 1.54978,-0.5147 0.42925,-0.36556 0.64389,-0.86273 0.64389,-1.49138 0,-0.70343 -0.19689,-1.23114 -0.59015,-1.58285 -0.39048,-0.35449 -0.96238,-0.53175 -1.71565,-0.53175 z m 5.69526,0 c -0.44311,0 -0.84319,0.0815 -1.20045,0.24495 -0.35724,0.16062 -0.66162,0.37798 -0.91364,0.65215 -0.25201,0.27417 -0.44617,0.59134 -0.58187,0.95137 -0.1357,0.36002 -0.20361,0.74236 -0.20361,1.1467 0,0.40156 0.072,0.77111 0.21601,1.10897 0.14678,0.33787 0.3464,0.62723 0.59841,0.86817 0.25202,0.24094 0.54684,0.42776 0.8847,0.56069 0.34064,0.13293 0.67145,0.19947 0.99271,0.19947 0.32401,0 0.60655,-0.0314 0.84749,-0.0951 0.49019,-0.13016 0.91263,-0.36851 1.26711,-0.71468 0.57604,-0.56219 0.86403,-1.26716 0.86403,-2.1146 0,-0.87513 -0.27981,-1.57003 -0.83923,-2.08515 -0.52342,-0.48187 -1.16731,-0.72295 -1.93166,-0.72295 z m 12.15119,0 c -0.0249,0.0194 -0.0595,0.0417 -0.10387,0.0667 -0.0443,0.0249 -0.18831,0.0372 -0.43201,0.0372 h -2.60501 c -0.40157,0 -0.6481,-0.015 -0.73949,-0.0455 l -0.0124,0.0124 v 1.0635 l 0.0124,0.004 c 0.0249,-0.0194 0.0595,-0.0417 0.10387,-0.0667 0.0443,-0.0249 0.18831,-0.0372 0.43201,-0.0372 h 0.82269 v 4.59404 h 0.13281 c 0.55111,0 0.89337,0.009 1.0263,0.0253 v -4.61936 h 0.62321 c 0.40156,0 0.6481,0.015 0.73949,0.0455 l 0.0124,-0.0124 v -1.06351 z m -40.73963,0.0698 c -0.62035,0.0221 -1.24734,0.0331 -1.88154,0.0331 -0.22708,0 -0.43762,-0.002 -0.63148,-0.008 l -0.29094,-0.008 c -0.0914,-0.003 -0.17431,-0.007 -0.24908,-0.0124 v 5.55419 h 3.11144 l 0.0413,-1.04283 -0.0165,-0.004 c -0.0665,0.0333 -0.18538,0.0496 -0.35708,0.0496 l -1.69499,-5.2e-4 v -1.49551 h 1.03043 c 0.21047,0 0.38177,0.007 0.51469,0.0207 l -0.0124,-1.02578 c -0.0609,0.0166 -0.24365,0.0248 -0.54829,0.0248 h -0.98443 v -1.05936 h 1.30845 c 0.26586,0 0.47093,0.0205 0.61495,0.062 l 0.008,-0.0124 c -0.005,-0.0221 -0.008,-0.0554 -0.008,-0.0997 0,-0.4071 0.015,-0.73246 0.0455,-0.97617 z m 44.69805,0 c -0.62035,0.0221 -1.24735,0.0331 -1.88154,0.0331 -0.22709,0 -0.43763,-0.002 -0.63149,-0.008 l -0.29094,-0.008 c -0.0914,-0.003 -0.1743,-0.007 -0.24908,-0.0124 v 5.55419 h 3.11144 l 0.0413,-1.04283 -0.0165,-0.004 c -0.0665,0.0333 -0.18539,0.0496 -0.35709,0.0496 l -1.69498,-5.2e-4 v -1.49551 h 1.03042 c 0.21048,0 0.38228,0.007 0.51522,0.0207 l -0.0129,-1.02578 c -0.0609,0.0166 -0.24365,0.0248 -0.54829,0.0248 h -0.98443 v -1.05936 h 1.30844 c 0.26587,0 0.47095,0.0205 0.61495,0.062 l 0.008,-0.0124 c -0.005,-0.0221 -0.008,-0.0554 -0.008,-0.0997 0,-0.4071 0.015,-0.73246 0.0455,-0.97617 z m -30.86065,0.001 c -0.0886,0.0221 -0.20618,0.0331 -0.35295,0.0331 h -0.29921 c -0.0582,0 -0.22587,-0.005 -0.50281,-0.0165 l 5.2e-4,5.54127 h 1.15031 z m 2.61689,0 c -0.0886,0.0221 -0.23944,0.0331 -0.45268,0.0331 -0.21324,0 -0.40825,-0.005 -0.5855,-0.0165 v 5.54127 h 0.33228 c 0.37941,0 0.6355,0.009 0.76843,0.0253 v -3.52692 l 1.36271,2.23501 1.35806,-2.43034 v 3.72225 c 0.13292,-0.0166 0.38901,-0.0253 0.76842,-0.0253 h 0.3328 v -5.54127 c -0.17724,0.0111 -0.39051,0.0165 -0.63975,0.0165 -0.24925,0 -0.41833,-0.0109 -0.50695,-0.0331 l -1.34204,2.37195 z m -10.27275,0.008 v 5.57485 c 0.13292,-0.0166 0.40266,-0.0253 0.80977,-0.0253 h 0.3948 c 0.63973,0 1.09544,0.0101 1.36684,0.0294 v -0.0419 c 0,-0.0249 0.01,-0.3612 0.0289,-1.00924 -0.14954,0.0166 -0.34916,0.0248 -0.59841,0.0248 h -0.8599 v -4.54443 c -0.27694,0.0111 -0.52023,0.0165 -0.7307,0.0165 -0.2077,0 -0.34488,-0.008 -0.41134,-0.0248 z m -3.80546,0.0129 -0.004,0.008 c 0.003,0.008 0.004,0.032 0.004,0.0708 0,0.036 -0.0401,0.1672 -0.1204,0.39429 l -1.80713,5.06378 h 0.32815 c 0.31848,0 0.59692,0.0114 0.83509,0.0336 l 0.39067,-1.22887 h 1.87792 l 0.39016,1.19631 h 0.64389 0.18707 l 0.21601,0.008 c 0.0748,0 0.13993,9.5e-4 0.19533,0.004 l -1.84433,-5.07205 c -0.0831,-0.2271 -0.12506,-0.36701 -0.12506,-0.41961 0,-0.0194 0.003,-0.0344 0.008,-0.0455 l -0.004,-0.008 c -0.23264,0.005 -0.43173,0.008 -0.5979,0.008 -0.20216,0 -0.39359,-0.004 -0.57361,-0.0124 z m -8.87697,0.88832 c 0.3711,0 0.65226,0.0543 0.84335,0.16227 0.20494,0.11908 0.30696,0.32552 0.30696,0.61908 0,0.29355 -0.0979,0.51364 -0.29455,0.66042 -0.0914,0.0664 -0.19939,0.11608 -0.32401,0.14935 -0.12463,0.0305 -0.27869,0.0455 -0.46147,0.0455 -0.18278,0 -0.34179,-0.01 -0.47749,-0.0289 v -1.58699 c 0.13016,-0.0139 0.26597,-0.0207 0.40721,-0.0207 z m 53.91608,0 c 0.3711,0 0.65228,0.0543 0.84336,0.16227 0.20494,0.11908 0.30696,0.32552 0.30696,0.61908 0,0.29355 -0.0979,0.51364 -0.29455,0.66042 -0.0914,0.0664 -0.19939,0.11608 -0.32402,0.14935 -0.12462,0.0305 -0.27869,0.0455 -0.46147,0.0455 -0.18278,0 -0.34179,-0.01 -0.47749,-0.0289 v -1.58699 c 0.13016,-0.0139 0.26597,-0.0207 0.40721,-0.0207 z m -24.39696,0.0207 c 0.74497,0 1.11725,0.36818 1.11725,1.10484 0,0.32956 -0.0985,0.59521 -0.29507,0.79737 -0.0942,0.0969 -0.21035,0.17353 -0.34882,0.22893 -0.13847,0.0526 -0.27155,0.0785 -0.39894,0.0785 -0.12739,0 -0.23539,-0.005 -0.32401,-0.0165 v -2.18488 c 0.0831,-0.005 0.16651,-0.008 0.24959,-0.008 z m 5.48752,0.0171 c 0.5345,0 0.95506,0.18819 1.26246,0.56482 0.28525,0.35171 0.42788,0.79053 0.42788,1.31671 0,0.55942 -0.14945,1.00097 -0.44855,1.32499 -0.29355,0.31295 -0.68273,0.46974 -1.16737,0.46974 -0.50957,0 -0.92603,-0.16362 -1.25005,-0.49041 -0.15232,-0.15509 -0.27175,-0.34054 -0.35761,-0.55656 -0.0858,-0.21601 -0.12867,-0.45299 -0.12867,-0.71055 0,-0.54003 0.14263,-0.9884 0.42788,-1.34565 0.30463,-0.38218 0.71615,-0.57309 1.23403,-0.57309 z m -25.57725,0.48575 0.62736,1.93167 h -1.23765 z"
         inkscape:export-filename="..\Packages\com.voidoverzero.rawteous\UI\logo.png"
         inkscape:export-xdpi="36.34164"
         inkscape:export-ydpi="36.34164" />
    </g>
  </g>
</svg>
